<mxfile host="app.diagrams.net" modified="2022-07-09T06:13:13.225Z" agent="5.0 (Windows)" etag="_sqXh1aiNb0aiMC1P98P" version="20.0.4" type="github">
  <diagram id="_FlJwcwKFU-QDIxlJ7v9" name="Page-1">
    <mxGraphModel dx="1038" dy="598" grid="1" gridSize="10" guides="1" tooltips="1" connect="1" arrows="1" fold="1" page="1" pageScale="1" pageWidth="850" pageHeight="1100" math="0" shadow="0">
      <root>
        <mxCell id="0" />
        <mxCell id="1" parent="0" />
        <mxCell id="RxQqcTZQ74SHKcJTIei2-1" value="" style="whiteSpace=wrap;html=1;aspect=fixed;rounded=1;sketch=0;" vertex="1" parent="1">
          <mxGeometry x="380" y="240" width="80" height="80" as="geometry" />
        </mxCell>
        <mxCell id="RxQqcTZQ74SHKcJTIei2-2" value="" style="endArrow=none;html=1;rounded=1;sketch=0;curved=1;" edge="1" parent="1" target="RxQqcTZQ74SHKcJTIei2-3">
          <mxGeometry width="50" height="50" relative="1" as="geometry">
            <mxPoint x="425" y="240" as="sourcePoint" />
            <mxPoint x="420" y="120" as="targetPoint" />
          </mxGeometry>
        </mxCell>
        <mxCell id="RxQqcTZQ74SHKcJTIei2-3" value="" style="rhombus;whiteSpace=wrap;html=1;rounded=1;sketch=0;" vertex="1" parent="1">
          <mxGeometry x="385" y="40" width="80" height="80" as="geometry" />
        </mxCell>
      </root>
    </mxGraphModel>
  </diagram>
</mxfile>
